<svg width="48" height="48" viewBox="0 0 48 48" fill="none" xmlns="http://www.w3.org/2000/svg">
<g clip-path="url(#clip0)">
<rect width="48" height="48" fill="white"/>
<path d="M34.1609 39.8253C34.1425 40.4184 33.8562 41.1016 33.1217 41.8575C32.3797 42.6211 31.2455 43.3843 29.7369 44.0665C26.7238 45.4291 22.4862 46.347 17.7552 46.4209C13.0242 46.4947 8.83957 45.7082 5.90833 44.4383C4.44077 43.8025 3.3529 43.074 2.65768 42.3328C1.96951 41.5991 1.72545 40.9242 1.7439 40.331C1.76234 39.7379 2.04862 39.0547 2.7831 38.2988C3.5251 37.5352 4.65935 36.772 6.16788 36.0898C9.18096 34.7272 13.4186 33.8092 18.1496 33.7354C22.8806 33.6616 27.0652 34.4481 29.9965 35.718C31.464 36.3538 32.5519 37.0823 33.2471 37.8235C33.9353 38.5572 34.1793 39.2321 34.1609 39.8253Z" fill="white" stroke="black" stroke-width="3"/>
<path d="M30.0895 10.8147C30.0495 12.1319 29.6151 14.6645 28.821 17.8077C28.0356 20.9162 26.926 24.5134 25.5901 27.9223C24.2478 31.3471 22.7064 34.5058 21.0795 36.7855C19.3789 39.1684 17.9149 40.1352 16.8027 40.152C15.6904 40.1689 14.2839 39.2455 12.7268 36.912C11.237 34.6794 9.88634 31.5645 8.75127 28.1772C7.62147 24.8056 6.7298 21.2387 6.13279 18.1511C5.52915 15.0291 5.2485 12.5074 5.28855 11.1901C5.43455 6.38883 10.748 1.81941 17.9716 1.71007C25.1952 1.60072 30.2355 6.01342 30.0895 10.8147Z" fill="white" stroke="black" stroke-width="3"/>
<path d="M21.6849 13.0205C21.6077 15.5043 19.5308 17.5494 17.0459 17.5881C14.5609 17.6269 12.6093 15.6447 12.6865 13.1609C12.7637 10.6772 14.8406 8.63203 17.3255 8.59326C19.8105 8.55449 21.7621 10.5368 21.6849 13.0205Z" fill="white" stroke="#FF9A16" stroke-width="3"/>
</g>
<defs>
<clipPath id="clip0">
<rect width="48" height="48" fill="white"/>
</clipPath>
</defs>
</svg>
