<svg width="48" height="48" viewBox="0 0 48 48" fill="none" xmlns="http://www.w3.org/2000/svg">
<g clip-path="url(#clip0)">
<rect width="48" height="48" fill="white"/>
<mask id="path-1-inside-1" fill="white">
<path fill-rule="evenodd" clip-rule="evenodd" d="M17.8549 6C17.13 6 16.4618 6.39227 16.1085 7.02527L12.4294 13.6171H8C3.58172 13.6171 0 17.1988 0 21.6171V34.8158C0 39.2341 3.58173 42.8158 8.00001 42.8158H40.2414C44.6597 42.8158 48.2414 39.2341 48.2414 34.8158V21.6171C48.2414 17.1988 44.6596 13.6171 40.2414 13.6171H36.1341L32.8248 7.09503C32.4839 6.42326 31.7945 6 31.0412 6H17.8549Z"/>
</mask>
<path d="M16.1085 7.02527L13.4889 5.56317L13.4889 5.56317L16.1085 7.02527ZM12.4294 13.6171V16.6171H14.1906L15.049 15.0792L12.4294 13.6171ZM36.1341 13.6171L33.4587 14.9745L34.2922 16.6171H36.1341V13.6171ZM32.8248 7.09503L35.5001 5.73758V5.73757L32.8248 7.09503ZM18.7281 8.48737C18.5515 8.80387 18.2174 9 17.8549 9V3C16.0426 3 14.3722 3.98067 13.4889 5.56317L18.7281 8.48737ZM15.049 15.0792L18.7281 8.48737L13.4889 5.56317L9.80979 12.155L15.049 15.0792ZM8 16.6171H12.4294V10.6171H8V16.6171ZM3 21.6171C3 18.8556 5.23858 16.6171 8 16.6171V10.6171C1.92487 10.6171 -3 15.5419 -3 21.6171H3ZM3 34.8158V21.6171H-3V34.8158H3ZM8.00001 39.8158C5.23858 39.8158 3 37.5772 3 34.8158H-3C-3 40.8909 1.92488 45.8158 8.00001 45.8158V39.8158ZM40.2414 39.8158H8.00001V45.8158H40.2414V39.8158ZM45.2414 34.8158C45.2414 37.5772 43.0028 39.8158 40.2414 39.8158V45.8158C46.3165 45.8158 51.2414 40.8909 51.2414 34.8158H45.2414ZM45.2414 21.6171V34.8158H51.2414V21.6171H45.2414ZM40.2414 16.6171C43.0028 16.6171 45.2414 18.8556 45.2414 21.6171H51.2414C51.2414 15.5419 46.3165 10.6171 40.2414 10.6171V16.6171ZM36.1341 16.6171H40.2414V10.6171H36.1341V16.6171ZM30.1495 8.45249L33.4587 14.9745L38.8094 12.2596L35.5001 5.73758L30.1495 8.45249ZM31.0412 9C30.6646 9 30.3199 8.78837 30.1495 8.45249L35.5001 5.73757C34.648 4.05816 32.9245 3 31.0412 3V9ZM17.8549 9H31.0412V3H17.8549V9Z" fill="black" mask="url(#path-1-inside-1)"/>
<path d="M31.5073 26.3122C31.5073 29.4819 28.4254 32.4292 24.1207 32.4292C19.8159 32.4292 16.7341 29.4819 16.7341 26.3122C16.7341 23.1424 19.8159 20.1951 24.1207 20.1951C28.4254 20.1951 31.5073 23.1424 31.5073 26.3122Z" stroke="#FF9A16" stroke-width="3"/>
<line x1="35.5463" y1="21.0036" x2="41.8938" y2="21.0036" stroke="black" stroke-width="3"/>
</g>
<defs>
<clipPath id="clip0">
<rect width="48" height="48" fill="white"/>
</clipPath>
</defs>
</svg>
